<svg width="40" height="40" viewBox="0 0 40 40" fill="none" xmlns="http://www.w3.org/2000/svg">
<path d="M38.267 21.5374L10.078 5.25037C9.85497 5.4515 9.68875 5.70773 9.59599 5.99336C9.57492 6.05892 9.5579 6.12571 9.545 6.19336L10.572 6.78636H10.577L27.977 16.8414L29.286 17.5994L37.545 22.3714L38.58 21.7714C38.4851 21.6815 38.38 21.603 38.267 21.5374Z" fill="#00A4F8"/>
<path d="M39.096 22.7304C39.096 22.7304 39.096 22.7224 39.096 22.7184C39.0325 22.3579 38.8543 22.0275 38.588 21.7764L20.093 32.4084L10.574 37.8944V39.0824C10.6868 39.0459 10.7953 38.9976 10.898 38.9384L20.645 33.3384H20.639L39.096 22.7304Z" fill="#2EF500"/>
<path d="M9.54701 6.19135C9.5274 6.28652 9.516 6.38322 9.51299 6.48035C9.51299 6.49335 9.493 39.0743 9.493 39.0743L9.51299 39.0823C9.68504 39.1387 9.86496 39.1674 10.046 39.1673H10.123C10.2763 39.1608 10.428 39.1335 10.574 39.0863V17.7654L10.579 6.78734L9.54701 6.19135Z" fill="#FF3564"/>
<path fill-rule="evenodd" clip-rule="evenodd" d="M20.4109 0.226372L28.7529 5.04237C29.0138 5.1909 29.2311 5.4055 29.3827 5.6646C29.5344 5.92369 29.6151 6.21815 29.6169 6.51837V16.1534C29.6166 16.2703 29.6043 16.387 29.5799 16.5014L28.5459 15.9014V6.52438C28.5458 6.41234 28.5163 6.30231 28.4603 6.20526C28.4043 6.10822 28.3239 6.02757 28.2269 5.97137L19.8849 1.15537C19.7879 1.09957 19.6779 1.07021 19.5659 1.07021C19.454 1.07021 19.344 1.09957 19.2469 1.15537L11.1179 5.84837L10.0859 5.24837C10.1729 5.17015 10.2678 5.10112 10.3689 5.04237L18.7109 0.226372C18.9697 0.0780411 19.2627 0 19.5609 0C19.8591 0 20.1522 0.0780411 20.4109 0.226372ZM28.7541 17.6443L20.4121 22.4603C20.3161 22.5172 20.2367 22.5981 20.1816 22.6951C20.1265 22.7921 20.0977 22.9018 20.0981 23.0134V32.4104L18.6531 33.2413C18.7565 33.1771 18.8441 33.0905 18.9095 32.9878C18.975 32.8852 19.0165 32.7692 19.0311 32.6484V23.0153C19.031 22.9033 19.0015 22.7933 18.9455 22.6962C18.8895 22.5992 18.809 22.5185 18.7121 22.4624L10.5791 17.7623V16.1624C10.5805 16.2732 10.6113 16.3818 10.6682 16.477C10.7251 16.5721 10.8061 16.6506 10.9031 16.7043L19.2451 21.5203C19.3422 21.5761 19.4522 21.6055 19.5641 21.6055C19.6761 21.6055 19.7861 21.5761 19.8831 21.5203L27.9831 16.8414L29.2921 17.5993C29.2047 17.5667 29.1111 17.5538 29.0181 17.5616C28.9251 17.5694 28.8349 17.5976 28.7541 17.6443ZM1.15163 32.9645C1.20761 33.0615 1.28807 33.1422 1.38499 33.1984L9.49399 37.8784V39.0724C9.38983 39.0373 9.28936 38.9921 9.194 38.9374L0.85199 34.1214C0.593314 33.9713 0.378519 33.7561 0.229019 33.4971C0.0795197 33.2381 0.000554198 32.9444 0 32.6454V23.0124C0.000453645 22.7133 0.0793724 22.4196 0.228882 22.1606C0.378391 21.9016 0.593246 21.6864 0.85199 21.5364L9.194 16.7204C9.29319 16.6657 9.39731 16.6205 9.50499 16.5854V17.7784L1.38499 22.4594C1.28807 22.5156 1.20761 22.5962 1.15163 22.6933C1.09565 22.7903 1.06611 22.9003 1.06599 23.0124V32.6454C1.06611 32.7574 1.09565 32.8674 1.15163 32.9645ZM38.053 32.6463C38.0529 32.7584 38.0234 32.8684 37.9674 32.9655C37.9115 33.0625 37.831 33.1432 37.734 33.1993L29.3921 38.0154C29.295 38.0712 29.185 38.1005 29.0731 38.1005C28.9611 38.1005 28.8511 38.0712 28.7541 38.0154L20.6451 33.3373L19.613 33.9373L19.636 33.9573C19.636 33.9573 19.7921 34.0774 19.8781 34.1273L28.2201 38.9433C28.4788 39.0917 28.7718 39.1697 29.07 39.1697C29.3683 39.1697 29.6613 39.0917 29.92 38.9433L38.2621 34.1273C38.5208 33.9774 38.7357 33.7621 38.8852 33.5031C39.0347 33.2441 39.1136 32.9504 39.114 32.6513V23.0183C39.1137 22.9235 39.1053 22.8288 39.0891 22.7354L38.0471 23.3354L38.053 32.6463Z" fill="#DBE4F3"/>
</svg>
