<svg width="32" height="35" viewBox="0 0 32 35" fill="none" xmlns="http://www.w3.org/2000/svg">
<path fill-rule="evenodd" clip-rule="evenodd" d="M9.33964 3.06838C9.14556 3.01115 8.98069 2.88175 8.87906 2.70678C8.82524 2.61352 8.79096 2.51027 8.77835 2.40333C8.76573 2.29639 8.77509 2.18801 8.80572 2.08478C8.83635 1.98155 8.88768 1.88564 8.95659 1.8029C9.02549 1.72015 9.11038 1.6523 9.20636 1.60349C11.2583 0.558104 13.5271 0.00892129 15.83 0.000107786C18.1329 -0.00870572 20.4057 0.523099 22.4656 1.55275C22.562 1.60106 22.6474 1.6685 22.7168 1.75096C22.7862 1.83341 22.8381 1.92914 22.8693 2.03231C22.9004 2.13549 22.9102 2.24394 22.898 2.35104C22.8859 2.45814 22.8522 2.56164 22.7987 2.65522C22.6982 2.83069 22.5343 2.96103 22.3407 3.01948C22.1471 3.07792 21.9385 3.06005 21.7577 2.96951C19.9191 2.05023 17.8904 1.57539 15.8348 1.58321C13.7792 1.59103 11.754 2.08127 9.92252 3.01452C9.7422 3.10634 9.53372 3.12562 9.33964 3.06838ZM2.70687 22.6353C2.88184 22.5337 3.01131 22.3689 3.06854 22.1749C3.12578 21.9809 3.10642 21.7723 3.01459 21.592C2.08129 19.7609 1.5911 17.7363 1.58328 15.6812C1.57546 13.6261 2.05029 11.5978 2.96963 9.75971C3.06017 9.57892 3.07803 9.37036 3.01959 9.1768C2.96114 8.98324 2.83079 8.81939 2.65532 8.71889C2.56176 8.66531 2.45831 8.63135 2.35119 8.61915C2.24407 8.60695 2.13549 8.61674 2.03228 8.64792C1.92907 8.6791 1.83337 8.73101 1.75093 8.80047C1.66849 8.86994 1.60113 8.9555 1.55291 9.05191C0.523199 11.1113 -0.00870578 13.3836 0.000107767 15.686C0.00892131 17.9884 0.558217 20.2565 1.60366 22.308C1.65248 22.4039 1.72034 22.489 1.80308 22.5578C1.88583 22.6267 1.9816 22.678 2.08483 22.7087C2.18806 22.7393 2.29661 22.7486 2.40354 22.736C2.51048 22.7233 2.61361 22.6891 2.70687 22.6353ZM6.59554 20.3744C6.7679 20.2736 6.89597 20.1117 6.95421 19.9208C7.01246 19.7298 6.99663 19.5239 6.90985 19.3442C6.36291 18.1945 6.07664 16.9384 6.07141 15.6653C6.06617 14.3923 6.34201 13.1338 6.87948 11.9797C6.96468 11.7994 6.97884 11.5937 6.91924 11.4034C6.85965 11.2131 6.7306 11.0522 6.55777 10.9528C6.46275 10.8983 6.35755 10.8641 6.24865 10.8524C6.13974 10.8407 6.02959 10.8516 5.92514 10.8846C5.82069 10.9176 5.7242 10.9719 5.6418 11.0441C5.55939 11.1162 5.49285 11.2046 5.44637 11.3038C4.80861 12.6709 4.48115 14.162 4.48724 15.6704C4.49332 17.1788 4.83277 18.6672 5.48154 20.0291C5.52852 20.1281 5.59554 20.2163 5.67836 20.2881C5.76119 20.3598 5.85801 20.4137 5.96271 20.4461C6.0674 20.4786 6.1777 20.489 6.28661 20.4766C6.39553 20.4643 6.50077 20.4295 6.59554 20.3744ZM28.9312 22.175C28.9885 22.3691 29.118 22.5338 29.2931 22.6353C29.3864 22.6891 29.4895 22.7233 29.5964 22.736C29.7034 22.7486 29.8117 22.7393 29.915 22.7087C30.0182 22.678 30.1142 22.6267 30.1969 22.5578C30.2797 22.489 30.3475 22.4039 30.3963 22.308C31.4418 20.2565 31.9911 17.9884 31.9999 15.686C32.0087 13.3836 31.4768 11.1113 30.4471 9.05191C30.3989 8.9555 30.3315 8.86994 30.2491 8.80047C30.1666 8.73101 30.0709 8.6791 29.9677 8.64792C29.8645 8.61674 29.7559 8.60695 29.6488 8.61915C29.5417 8.63135 29.4382 8.66531 29.3447 8.71889C29.1692 8.81939 29.0389 8.98324 28.9804 9.1768C28.922 9.37036 28.9398 9.57892 29.0304 9.75971C29.9497 11.5978 30.4245 13.6261 30.4167 15.6812C30.4089 17.7363 29.9187 19.7609 28.9854 21.592C28.8934 21.7722 28.874 21.9809 28.9312 22.175ZM25.4047 20.3744C25.2323 20.2737 25.1043 20.1117 25.046 19.9208C24.9878 19.7299 25.0036 19.524 25.0904 19.3442C25.6373 18.1946 25.9236 16.9384 25.9288 15.6654C25.9341 14.3923 25.658 13.1338 25.1206 11.9797C25.0354 11.7995 25.0212 11.5937 25.0808 11.4035C25.1404 11.2132 25.2694 11.0523 25.4423 10.9528C25.5373 10.8985 25.6424 10.8644 25.7512 10.8528C25.86 10.8411 25.9701 10.8521 26.0745 10.8851C26.1788 10.9181 26.2753 10.9723 26.3576 11.0444C26.44 11.1165 26.5064 11.2048 26.5529 11.3039C27.1909 12.6708 27.5187 14.162 27.5126 15.6704C27.5065 17.1789 27.1667 18.6674 26.5177 20.0291C26.4707 20.128 26.4036 20.2161 26.3209 20.2878C26.2381 20.3596 26.1415 20.4133 26.0369 20.4458C25.9323 20.4782 25.822 20.4886 25.7132 20.4764C25.6044 20.4641 25.4994 20.4294 25.4047 20.3744ZM11.1406 6.59353C11.2414 6.76589 11.4034 6.89394 11.5944 6.95219C11.7854 7.01043 11.9913 6.99461 12.1711 6.90783C13.3209 6.36077 14.5774 6.07439 15.8508 6.06916C17.1241 6.06392 18.3829 6.33995 19.5372 6.87753C19.7175 6.96249 19.923 6.97658 20.1131 6.91699C20.3033 6.85741 20.464 6.7285 20.5635 6.55587C20.6181 6.46092 20.6524 6.35567 20.6642 6.24677C20.6761 6.13787 20.6654 6.02771 20.6325 5.92324C20.5995 5.81876 20.5451 5.72227 20.473 5.63984C20.4008 5.55742 20.3124 5.49086 20.2132 5.4444C18.8458 4.80636 17.3541 4.47871 15.8452 4.48493C14.3362 4.49116 12.8472 4.83111 11.4851 5.48041C11.3862 5.52748 11.2982 5.59454 11.2265 5.67733C11.1549 5.76013 11.1012 5.85686 11.0689 5.96145C11.0365 6.06604 11.0262 6.17622 11.0385 6.28501C11.0508 6.3938 11.0856 6.49885 11.1406 6.59353ZM27.7726 30.8479L28.0981 33.6819L28.251 35H3.25708L3.40422 33.6989L3.72969 30.8471C3.81657 30.3674 5.51827 29.5643 7.15389 28.7924C7.50893 28.6249 7.86086 28.4588 8.19248 28.2978C9.38393 27.6492 10.5117 26.8899 11.5607 26.0298C11.9861 25.694 12.3424 25.4021 12.5766 25.2061C12.7678 25.0467 12.8775 24.9515 12.8775 24.9515V23.783C12.3046 23.1701 11.7424 22.1206 11.3286 21.348C11.0967 20.9153 10.9115 20.5694 10.797 20.436C10.3821 19.6971 10.1117 18.886 9.99992 18.046C9.99992 17.6207 10.5317 17.2491 10.5317 17.2491V14.4371C10.5996 13.436 10.9714 12.4794 11.5973 11.6951C12.1079 11.1504 12.7271 10.7188 13.4148 10.428C14.1025 10.1373 14.8434 9.9938 15.59 10.0069H15.7529H15.9155C16.7045 9.99002 17.4873 10.1511 18.2055 10.4783C18.9236 10.8055 19.5586 11.2903 20.0635 11.8968C20.5908 12.6456 20.9047 13.5237 20.9714 14.4371V17.2491C20.9714 17.2491 21.5032 17.6207 21.5032 18.046C21.3912 18.8859 21.1207 19.6969 20.7061 20.436C20.5916 20.5694 20.4062 20.9153 20.1742 21.3483C19.9466 21.773 19.6741 22.2815 19.3796 22.7552C19.1611 23.1206 18.9086 23.4648 18.6256 23.783V24.9515C18.6256 24.9515 18.833 25.1313 19.1721 25.411C20.4532 26.507 21.8392 27.4741 23.3099 28.2986C23.6407 28.4591 23.9917 28.6247 24.3457 28.7918C25.9823 29.5639 27.685 30.3672 27.7726 30.8479Z" fill="#12A3F5"/>
</svg>
