<svg width="97" height="18" viewBox="0 0 97 18" fill="none" xmlns="http://www.w3.org/2000/svg">
<path d="M6.38172 17.132C5.41372 17.132 4.57038 17.022 3.85172 16.802C3.13305 16.582 2.53905 16.186 2.06972 15.614C1.60038 15.0274 1.24838 14.1914 1.01372 13.106C0.793716 12.0207 0.683716 10.6054 0.683716 8.86003C0.683716 7.21736 0.801049 5.86803 1.03572 4.81203C1.27038 3.74136 1.62238 2.90536 2.09172 2.30403C2.57572 1.70269 3.18438 1.28469 3.91772 1.05003C4.65105 0.800692 5.51638 0.676025 6.51372 0.676025C6.96838 0.676025 7.47438 0.705359 8.03172 0.764025C8.58905 0.822692 9.13905 0.896026 9.68172 0.984025C10.2244 1.05736 10.7157 1.15269 11.1557 1.27003V2.56803C10.9064 2.52403 10.5544 2.48003 10.0997 2.43603C9.64505 2.39203 9.12438 2.35536 8.53772 2.32603C7.96572 2.28203 7.37905 2.26003 6.77772 2.26003C6.00038 2.26003 5.33305 2.34803 4.77572 2.52402C4.21838 2.70003 3.76372 3.03003 3.41172 3.51403C3.07438 3.98336 2.82505 4.65069 2.66372 5.51603C2.50238 6.38136 2.42172 7.50336 2.42172 8.88203C2.42172 10.2754 2.49505 11.4194 2.64172 12.314C2.80305 13.194 3.05238 13.8687 3.38972 14.338C3.72705 14.8074 4.16705 15.13 4.70972 15.306C5.25238 15.482 5.92705 15.57 6.73372 15.57C7.83372 15.57 8.73572 15.5407 9.43972 15.482C10.1437 15.4234 10.7157 15.3574 11.1557 15.284V16.604C10.7157 16.7067 10.2244 16.802 9.68172 16.89C9.15372 16.9634 8.60372 17.022 8.03172 17.066C7.47438 17.11 6.92438 17.132 6.38172 17.132Z" fill="white"/>
<path d="M21.5001 17.132C20.4587 17.132 19.5421 17.0367 18.7501 16.846C17.9727 16.6407 17.3201 16.2594 16.7921 15.702C16.2787 15.1447 15.8901 14.3234 15.6261 13.238C15.3767 12.1527 15.2521 10.73 15.2521 8.97003C15.2521 7.21003 15.3841 5.78736 15.6481 4.70203C15.9121 3.60203 16.3081 2.76603 16.8361 2.19403C17.3641 1.60736 18.0167 1.21136 18.7941 1.00602C19.5714 0.786025 20.4734 0.676025 21.5001 0.676025C22.5561 0.676025 23.4727 0.786025 24.2501 1.00602C25.0421 1.21136 25.6947 1.60736 26.2081 2.19403C26.7361 2.76603 27.1247 3.60203 27.3741 4.70203C27.6234 5.78736 27.7481 7.21003 27.7481 8.97003C27.7481 10.73 27.6161 12.1527 27.3521 13.238C27.1027 14.3234 26.7141 15.1447 26.1861 15.702C25.6727 16.2594 25.0274 16.6407 24.2501 16.846C23.4727 17.0367 22.5561 17.132 21.5001 17.132ZM21.5001 15.57C22.3214 15.57 23.0181 15.4894 23.5901 15.328C24.1621 15.1667 24.6241 14.8587 24.9761 14.404C25.3427 13.9347 25.6067 13.2674 25.7681 12.402C25.9294 11.5367 26.0101 10.3927 26.0101 8.97003C26.0101 7.48869 25.9221 6.30069 25.7461 5.40603C25.5847 4.51136 25.3207 3.83669 24.9541 3.38203C24.6021 2.92736 24.1401 2.62669 23.5681 2.48003C23.0107 2.33336 22.3214 2.26003 21.5001 2.26003C20.7374 2.26003 20.0701 2.33336 19.4981 2.48003C18.9407 2.62669 18.4714 2.92736 18.0901 3.38203C17.7234 3.83669 17.4447 4.51136 17.2541 5.40603C17.0781 6.30069 16.9901 7.48869 16.9901 8.97003C16.9901 10.3927 17.0634 11.5367 17.2101 12.402C17.3714 13.2674 17.6281 13.9347 17.9801 14.404C18.3321 14.8587 18.7941 15.1667 19.3661 15.328C19.9527 15.4894 20.6641 15.57 21.5001 15.57Z" fill="white"/>
<path d="M33.0381 17V0.808025H34.4681L42.9161 13.986V0.808025H44.6541V17H43.2241L34.7761 3.82203V17H33.0381Z" fill="white"/>
<path d="M55.0497 17.132C54.0817 17.132 53.2384 17.022 52.5197 16.802C51.801 16.582 51.207 16.186 50.7377 15.614C50.2684 15.0274 49.9163 14.1914 49.6817 13.106C49.4617 12.0207 49.3517 10.6054 49.3517 8.86003C49.3517 7.21736 49.469 5.86803 49.7037 4.81203C49.9384 3.74136 50.2904 2.90536 50.7597 2.30403C51.2437 1.70269 51.8524 1.28469 52.5857 1.05003C53.319 0.800692 54.1843 0.676025 55.1817 0.676025C55.6363 0.676025 56.1424 0.705359 56.6997 0.764025C57.257 0.822692 57.807 0.896026 58.3497 0.984025C58.8924 1.05736 59.3837 1.15269 59.8237 1.27003V2.56803C59.5744 2.52403 59.2224 2.48003 58.7677 2.43603C58.313 2.39203 57.7924 2.35536 57.2057 2.32603C56.6337 2.28203 56.047 2.26003 55.4457 2.26003C54.6684 2.26003 54.001 2.34803 53.4437 2.52402C52.8864 2.70003 52.4317 3.03003 52.0797 3.51403C51.7424 3.98336 51.493 4.65069 51.3317 5.51603C51.1704 6.38136 51.0897 7.50336 51.0897 8.88203C51.0897 10.2754 51.163 11.4194 51.3097 12.314C51.471 13.194 51.7204 13.8687 52.0577 14.338C52.395 14.8074 52.835 15.13 53.3777 15.306C53.9204 15.482 54.595 15.57 55.4017 15.57C56.5017 15.57 57.4037 15.5407 58.1077 15.482C58.8117 15.4234 59.3837 15.3574 59.8237 15.284V16.604C59.3837 16.7067 58.8924 16.802 58.3497 16.89C57.8217 16.9634 57.2717 17.022 56.6997 17.066C56.1424 17.11 55.5924 17.132 55.0497 17.132Z" fill="white"/>
<path d="M64.5309 17V0.808025H66.2909V17H64.5309Z" fill="white"/>
<path d="M75.1191 17.088C74.7671 17.088 74.3931 17.0587 73.9971 17C73.6011 16.9267 73.2271 16.7874 72.8751 16.582C72.5231 16.3767 72.2371 16.0687 72.0171 15.658C71.7971 15.2327 71.6871 14.6607 71.6871 13.942V4.06403C71.6871 3.43336 71.7751 2.91269 71.9511 2.50203C72.1418 2.07669 72.3911 1.74669 72.6991 1.51202C73.0071 1.26269 73.3518 1.08669 73.7331 0.984025C74.1145 0.866692 74.4958 0.808025 74.8771 0.808025C75.7865 0.822692 76.6298 0.844692 77.4071 0.874025C78.1845 0.888692 78.9178 0.910692 79.6071 0.940026C80.3111 0.954692 80.9931 0.976692 81.6531 1.00602V2.41403H75.3171C74.7451 2.41403 74.2905 2.56803 73.9531 2.87603C73.6158 3.18403 73.4471 3.67536 73.4471 4.35003V8.17803L80.6851 8.28803V9.63003L73.4471 9.74003V13.546C73.4471 14.0887 73.5351 14.4994 73.7111 14.778C73.9018 15.0567 74.1511 15.24 74.4591 15.328C74.7671 15.416 75.0825 15.46 75.4051 15.46H81.6531V16.868C80.9785 16.912 80.2671 16.9487 79.5191 16.978C78.7858 17.0074 78.0451 17.0294 77.2971 17.044C76.5638 17.0587 75.8378 17.0734 75.1191 17.088Z" fill="white"/>
<path d="M89.8552 17C89.2246 17 88.6599 16.9047 88.1612 16.714C87.6772 16.5087 87.2959 16.1714 87.0173 15.702C86.7386 15.218 86.5993 14.5654 86.5993 13.744V0.808025H88.3593V13.502C88.3593 14.03 88.4473 14.4334 88.6233 14.712C88.7993 14.976 89.0339 15.1594 89.3272 15.262C89.6206 15.35 89.9212 15.394 90.2292 15.394H96.0373V17H89.8552Z" fill="white"/>
</svg>
